<svg xmlns="http://www.w3.org/2000/svg" viewBox="0 0 1024 820" role="img" aria-label="Capital C · Transit loop and alley"><title>Capital C · Transit loop and alley</title><desc>Authored schematic. Blocking terrain surrounds clear route corridors; main teal solid, flank violet dashed. Direct north transit is fast; southern transit loop collects troop support before the second terminal. The back alley links both assault circuits. Perimeter is long and visible; alley turns prevent the laser covering the entire withdrawal.</desc><rect width="1024" height="768" fill="#414650"/><g stroke="#c2b8a2" stroke-width="144" stroke-linecap="round"><path d="M160,170L850,170"/><path d="M850,170L850,620"/><path d="M850,620L160,620"/><path d="M160,620L160,170"/><path d="M160,620L360,410"/><path d="M360,410L680,410"/><path d="M680,410L850,170"/></g><g fill="#c2b8a2"><circle cx="160" cy="170" r="88"/><circle cx="850" cy="170" r="88"/><circle cx="850" cy="620" r="88"/><circle cx="160" cy="620" r="88"/><circle cx="360" cy="410" r="88"/><circle cx="680" cy="410" r="88"/></g><g stroke="#ffffff" stroke-opacity=".1" stroke-width="1"><path d="M128,32V768"/><path d="M256,32V768"/><path d="M384,32V768"/><path d="M512,32V768"/><path d="M640,32V768"/><path d="M768,32V768"/><path d="M896,32V768"/><path d="M0,128H1024"/><path d="M0,256H1024"/><path d="M0,384H1024"/><path d="M0,512H1024"/><path d="M0,640H1024"/></g><polyline points="160,170 850,170" fill="none" stroke="#187d82" stroke-width="7" /><polyline points="160,170 160,620 850,620" fill="none" stroke="#7652a3" stroke-width="7" stroke-dasharray="16 9"/><g fill="none" stroke="#d37059" stroke-width="3" stroke-dasharray="4 5"><circle cx="850" cy="170" r="77"/><circle cx="850" cy="620" r="77"/><circle cx="160" cy="620" r="77"/><circle cx="360" cy="410" r="77"/><circle cx="680" cy="410" r="77"/></g><g><title>objective O1</title><rect x="837" y="157" width="26" height="26" fill="#f6de65" stroke="#15212e" stroke-width="2"/><text x="850" y="175" text-anchor="middle" font-size="12" font-weight="bold" fill="#15212e">O1</text></g><g><title>objective O2</title><rect x="837" y="607" width="26" height="26" fill="#f6de65" stroke="#15212e" stroke-width="2"/><text x="850" y="625" text-anchor="middle" font-size="12" font-weight="bold" fill="#15212e">O2</text></g><g><title>friendly C commanders</title><circle cx="160" cy="170" r="13" fill="#185d8b" stroke="#15212e" stroke-width="2"/><text x="160" y="175" text-anchor="middle" font-size="12" font-weight="bold" fill="white">C</text></g><g><title>friendly C commanders</title><circle cx="128" cy="170" r="13" fill="#185d8b" stroke="#15212e" stroke-width="2"/><text x="128" y="175" text-anchor="middle" font-size="12" font-weight="bold" fill="white">C</text></g><g><title>friendly C commanders</title><circle cx="192" cy="170" r="13" fill="#185d8b" stroke="#15212e" stroke-width="2"/><text x="192" y="175" text-anchor="middle" font-size="12" font-weight="bold" fill="white">C</text></g><g><title>friendly C commanders</title><circle cx="160" cy="138" r="13" fill="#185d8b" stroke="#15212e" stroke-width="2"/><text x="160" y="143" text-anchor="middle" font-size="12" font-weight="bold" fill="white">C</text></g><g><title>friendly S soldiers</title><circle cx="160" cy="202" r="13" fill="#185d8b" stroke="#15212e" stroke-width="2"/><text x="160" y="207" text-anchor="middle" font-size="12" font-weight="bold" fill="white">S</text></g><g><title>friendly S soldiers</title><circle cx="128" cy="138" r="13" fill="#185d8b" stroke="#15212e" stroke-width="2"/><text x="128" y="143" text-anchor="middle" font-size="12" font-weight="bold" fill="white">S</text></g><g><title>friendly S soldiers</title><circle cx="192" cy="138" r="13" fill="#185d8b" stroke="#15212e" stroke-width="2"/><text x="192" y="143" text-anchor="middle" font-size="12" font-weight="bold" fill="white">S</text></g><g><title>friendly S soldiers</title><circle cx="128" cy="202" r="13" fill="#185d8b" stroke="#15212e" stroke-width="2"/><text x="128" y="207" text-anchor="middle" font-size="12" font-weight="bold" fill="white">S</text></g><g><title>friendly S soldiers</title><circle cx="192" cy="202" r="13" fill="#185d8b" stroke="#15212e" stroke-width="2"/><text x="192" y="207" text-anchor="middle" font-size="12" font-weight="bold" fill="white">S</text></g><g><title>friendly S soldiers</title><circle cx="104" cy="170" r="13" fill="#185d8b" stroke="#15212e" stroke-width="2"/><text x="104" y="175" text-anchor="middle" font-size="12" font-weight="bold" fill="white">S</text></g><g><title>friendly RB robots</title><circle cx="216" cy="170" r="13" fill="#185d8b" stroke="#15212e" stroke-width="2"/><text x="216" y="175" text-anchor="middle" font-size="12" font-weight="bold" fill="white">RB</text></g><g><title>friendly SP shields</title><circle cx="160" cy="114" r="13" fill="#185d8b" stroke="#15212e" stroke-width="2"/><text x="160" y="119" text-anchor="middle" font-size="12" font-weight="bold" fill="white">SP</text></g><g><title>friendly SP lasers</title><circle cx="160" cy="226" r="13" fill="#185d8b" stroke="#15212e" stroke-width="2"/><text x="160" y="231" text-anchor="middle" font-size="12" font-weight="bold" fill="white">SP</text></g><g><title>nest N1</title><circle cx="818" cy="620" r="13" fill="#9f4144" stroke="#15212e" stroke-width="2"/><text x="818" y="625" text-anchor="middle" font-size="12" font-weight="bold" fill="white">N1</text></g><g><title>nest N2</title><circle cx="160" cy="620" r="13" fill="#9f4144" stroke="#15212e" stroke-width="2"/><text x="160" y="625" text-anchor="middle" font-size="12" font-weight="bold" fill="white">N2</text></g><g><title>nest N3</title><circle cx="360" cy="410" r="13" fill="#9f4144" stroke="#15212e" stroke-width="2"/><text x="360" y="415" text-anchor="middle" font-size="12" font-weight="bold" fill="white">N3</text></g><g><title>nest N4</title><circle cx="680" cy="410" r="13" fill="#9f4144" stroke="#15212e" stroke-width="2"/><text x="680" y="415" text-anchor="middle" font-size="12" font-weight="bold" fill="white">N4</text></g><g><title>enemy E1</title><circle cx="128" cy="620" r="13" fill="#cd6464" stroke="#15212e" stroke-width="2"/><text x="128" y="625" text-anchor="middle" font-size="12" font-weight="bold" fill="white">E1</text></g><g><title>enemy E2</title><circle cx="328" cy="410" r="13" fill="#cd6464" stroke="#15212e" stroke-width="2"/><text x="328" y="415" text-anchor="middle" font-size="12" font-weight="bold" fill="white">E2</text></g><g><title>enemy E3</title><circle cx="648" cy="410" r="13" fill="#cd6464" stroke="#15212e" stroke-width="2"/><text x="648" y="415" text-anchor="middle" font-size="12" font-weight="bold" fill="white">E3</text></g><g><title>enemy E4</title><circle cx="818" cy="170" r="13" fill="#cd6464" stroke="#15212e" stroke-width="2"/><text x="818" y="175" text-anchor="middle" font-size="12" font-weight="bold" fill="white">E4</text></g><g><title>enemy E5</title><circle cx="882" cy="620" r="13" fill="#cd6464" stroke="#15212e" stroke-width="2"/><text x="882" y="625" text-anchor="middle" font-size="12" font-weight="bold" fill="white">E5</text></g><g><title>enemy E6</title><circle cx="192" cy="620" r="13" fill="#cd6464" stroke="#15212e" stroke-width="2"/><text x="192" y="625" text-anchor="middle" font-size="12" font-weight="bold" fill="white">E6</text></g><g><title>support T1</title><rect x="869" y="157" width="26" height="26" fill="#e5b33e" stroke="#15212e" stroke-width="2"/><text x="882" y="175" text-anchor="middle" font-size="12" font-weight="bold" fill="#15212e">T1</text></g><g><title>support T2</title><rect x="147" y="575" width="26" height="26" fill="#e5b33e" stroke="#15212e" stroke-width="2"/><text x="160" y="593" text-anchor="middle" font-size="12" font-weight="bold" fill="#15212e">T2</text></g><g><title>weapon P</title><rect x="837" y="125" width="26" height="26" fill="#a086ce" stroke="#15212e" stroke-width="2"/><text x="850" y="143" text-anchor="middle" font-size="12" font-weight="bold" fill="#15212e">P</text></g><g><title>landing L1 existing commando relief; future arrival</title><rect x="837" y="189" width="26" height="26" fill="#4e99ae" stroke="#15212e" stroke-width="2"/><text x="850" y="207" text-anchor="middle" font-size="12" font-weight="bold" fill="#15212e">L1</text></g><g><title>landing L2 existing commando relief; future arrival</title><rect x="805" y="125" width="26" height="26" fill="#4e99ae" stroke="#15212e" stroke-width="2"/><text x="818" y="143" text-anchor="middle" font-size="12" font-weight="bold" fill="#15212e">L2</text></g><g><title>landing L3 existing commando relief; future arrival</title><rect x="869" y="125" width="26" height="26" fill="#4e99ae" stroke="#15212e" stroke-width="2"/><text x="882" y="143" text-anchor="middle" font-size="12" font-weight="bold" fill="#15212e">L3</text></g><rect width="1024" height="32" fill="#162839"/><text x="16" y="23" fill="#fff" font-family="sans-serif" font-size="18">Capital / C · Transit loop and alley — HUD reservation 0–31</text><rect y="768" width="1024" height="52" fill="#f3f4ed"/><text x="14" y="788" fill="#15212e" font-size="15" font-family="sans-serif">D deployment · C commanders · S infantry · SP specialist · RB robot · O terminal · R survivors · X exit · L relief</text><text x="14" y="809" fill="#15212e" font-size="15" font-family="sans-serif">N nest · E bug · T troops · TK tank · P plasma · V vent · A ambush · H heat · light clear / dark blocked · schematic</text></svg>