<svg xmlns="http://www.w3.org/2000/svg" viewBox="0 0 1024 820" role="img" aria-label="Maritime B · Breakwater crescent"><title>Maritime B · Breakwater crescent</title><desc>Authored schematic. Blocking terrain surrounds clear route corridors; main teal solid, flank violet dashed. Continuous seawall permits clockwise relief; interior pier is a shorter reinforcement cut. Separated north/east fronts make the 120s hold demand travel; inner cut has two attack mouths.</desc><rect width="1024" height="768" fill="#163e59"/><g stroke="#87b9ad" stroke-width="144" stroke-linecap="round"><path d="M160,610L160,180"/><path d="M160,180L480,140"/><path d="M480,140L840,220"/><path d="M840,220L870,580"/><path d="M870,580L560,620"/><path d="M560,620L160,610"/><path d="M480,140L470,380"/><path d="M470,380L560,620"/></g><g fill="#87b9ad"><circle cx="160" cy="610" r="88"/><circle cx="160" cy="180" r="88"/><circle cx="480" cy="140" r="88"/><circle cx="840" cy="220" r="88"/><circle cx="870" cy="580" r="88"/><circle cx="560" cy="620" r="88"/><circle cx="470" cy="380" r="88"/></g><g stroke="#ffffff" stroke-opacity=".1" stroke-width="1"><path d="M128,32V768"/><path d="M256,32V768"/><path d="M384,32V768"/><path d="M512,32V768"/><path d="M640,32V768"/><path d="M768,32V768"/><path d="M896,32V768"/><path d="M0,128H1024"/><path d="M0,256H1024"/><path d="M0,384H1024"/><path d="M0,512H1024"/><path d="M0,640H1024"/></g><polyline points="160,610 160,180 480,140 840,220" fill="none" stroke="#187d82" stroke-width="7" /><polyline points="160,610 560,620 870,580 840,220" fill="none" stroke="#7652a3" stroke-width="7" stroke-dasharray="16 9"/><g fill="none" stroke="#d37059" stroke-width="3" stroke-dasharray="4 5"><circle cx="160" cy="180" r="77"/><circle cx="480" cy="140" r="77"/><circle cx="840" cy="220" r="77"/><circle cx="870" cy="580" r="77"/><circle cx="560" cy="620" r="77"/><circle cx="470" cy="380" r="77"/></g><g><title>friendly C commanders</title><circle cx="160" cy="610" r="13" fill="#185d8b" stroke="#15212e" stroke-width="2"/><text x="160" y="615" text-anchor="middle" font-size="12" font-weight="bold" fill="white">C</text></g><g><title>friendly C commanders</title><circle cx="128" cy="610" r="13" fill="#185d8b" stroke="#15212e" stroke-width="2"/><text x="128" y="615" text-anchor="middle" font-size="12" font-weight="bold" fill="white">C</text></g><g><title>friendly C commanders</title><circle cx="192" cy="610" r="13" fill="#185d8b" stroke="#15212e" stroke-width="2"/><text x="192" y="615" text-anchor="middle" font-size="12" font-weight="bold" fill="white">C</text></g><g><title>friendly C commanders</title><circle cx="160" cy="578" r="13" fill="#185d8b" stroke="#15212e" stroke-width="2"/><text x="160" y="583" text-anchor="middle" font-size="12" font-weight="bold" fill="white">C</text></g><g><title>friendly S soldiers</title><circle cx="160" cy="642" r="13" fill="#185d8b" stroke="#15212e" stroke-width="2"/><text x="160" y="647" text-anchor="middle" font-size="12" font-weight="bold" fill="white">S</text></g><g><title>friendly S soldiers</title><circle cx="128" cy="578" r="13" fill="#185d8b" stroke="#15212e" stroke-width="2"/><text x="128" y="583" text-anchor="middle" font-size="12" font-weight="bold" fill="white">S</text></g><g><title>friendly S soldiers</title><circle cx="192" cy="578" r="13" fill="#185d8b" stroke="#15212e" stroke-width="2"/><text x="192" y="583" text-anchor="middle" font-size="12" font-weight="bold" fill="white">S</text></g><g><title>friendly S soldiers</title><circle cx="128" cy="642" r="13" fill="#185d8b" stroke="#15212e" stroke-width="2"/><text x="128" y="647" text-anchor="middle" font-size="12" font-weight="bold" fill="white">S</text></g><g><title>friendly S soldiers</title><circle cx="192" cy="642" r="13" fill="#185d8b" stroke="#15212e" stroke-width="2"/><text x="192" y="647" text-anchor="middle" font-size="12" font-weight="bold" fill="white">S</text></g><g><title>friendly S soldiers</title><circle cx="104" cy="610" r="13" fill="#185d8b" stroke="#15212e" stroke-width="2"/><text x="104" y="615" text-anchor="middle" font-size="12" font-weight="bold" fill="white">S</text></g><g><title>friendly RB robots</title><circle cx="216" cy="610" r="13" fill="#185d8b" stroke="#15212e" stroke-width="2"/><text x="216" y="615" text-anchor="middle" font-size="12" font-weight="bold" fill="white">RB</text></g><g><title>friendly SP suppressors</title><circle cx="160" cy="554" r="13" fill="#185d8b" stroke="#15212e" stroke-width="2"/><text x="160" y="559" text-anchor="middle" font-size="12" font-weight="bold" fill="white">SP</text></g><g><title>friendly SP grenadiers</title><circle cx="160" cy="666" r="13" fill="#185d8b" stroke="#15212e" stroke-width="2"/><text x="160" y="671" text-anchor="middle" font-size="12" font-weight="bold" fill="white">SP</text></g><g><title>nest N1</title><circle cx="480" cy="140" r="13" fill="#9f4144" stroke="#15212e" stroke-width="2"/><text x="480" y="145" text-anchor="middle" font-size="12" font-weight="bold" fill="white">N1</text></g><g><title>nest N2</title><circle cx="840" cy="220" r="13" fill="#9f4144" stroke="#15212e" stroke-width="2"/><text x="840" y="225" text-anchor="middle" font-size="12" font-weight="bold" fill="white">N2</text></g><g><title>nest N3</title><circle cx="870" cy="580" r="13" fill="#9f4144" stroke="#15212e" stroke-width="2"/><text x="870" y="585" text-anchor="middle" font-size="12" font-weight="bold" fill="white">N3</text></g><g><title>nest N4</title><circle cx="560" cy="620" r="13" fill="#9f4144" stroke="#15212e" stroke-width="2"/><text x="560" y="625" text-anchor="middle" font-size="12" font-weight="bold" fill="white">N4</text></g><g><title>enemy E1</title><circle cx="808" cy="220" r="13" fill="#cd6464" stroke="#15212e" stroke-width="2"/><text x="808" y="225" text-anchor="middle" font-size="12" font-weight="bold" fill="white">E1</text></g><g><title>enemy E2</title><circle cx="838" cy="580" r="13" fill="#cd6464" stroke="#15212e" stroke-width="2"/><text x="838" y="585" text-anchor="middle" font-size="12" font-weight="bold" fill="white">E2</text></g><g><title>enemy E3</title><circle cx="528" cy="620" r="13" fill="#cd6464" stroke="#15212e" stroke-width="2"/><text x="528" y="625" text-anchor="middle" font-size="12" font-weight="bold" fill="white">E3</text></g><g><title>enemy E4</title><circle cx="470" cy="380" r="13" fill="#cd6464" stroke="#15212e" stroke-width="2"/><text x="470" y="385" text-anchor="middle" font-size="12" font-weight="bold" fill="white">E4</text></g><g><title>enemy E5</title><circle cx="160" cy="180" r="13" fill="#cd6464" stroke="#15212e" stroke-width="2"/><text x="160" y="185" text-anchor="middle" font-size="12" font-weight="bold" fill="white">E5</text></g><g><title>enemy E6</title><circle cx="448" cy="140" r="13" fill="#cd6464" stroke="#15212e" stroke-width="2"/><text x="448" y="145" text-anchor="middle" font-size="12" font-weight="bold" fill="white">E6</text></g><g><title>enemy E7</title><circle cx="872" cy="220" r="13" fill="#cd6464" stroke="#15212e" stroke-width="2"/><text x="872" y="225" text-anchor="middle" font-size="12" font-weight="bold" fill="white">E7</text></g><g><title>support T1</title><rect x="115" y="167" width="26" height="26" fill="#e5b33e" stroke="#15212e" stroke-width="2"/><text x="128" y="185" text-anchor="middle" font-size="12" font-weight="bold" fill="#15212e">T1</text></g><g><title>support T2</title><rect x="579" y="607" width="26" height="26" fill="#e5b33e" stroke="#15212e" stroke-width="2"/><text x="592" y="625" text-anchor="middle" font-size="12" font-weight="bold" fill="#15212e">T2</text></g><g><title>support T3</title><rect x="827" y="175" width="26" height="26" fill="#e5b33e" stroke="#15212e" stroke-width="2"/><text x="840" y="193" text-anchor="middle" font-size="12" font-weight="bold" fill="#15212e">T3</text></g><g><title>weapon P</title><rect x="179" y="167" width="26" height="26" fill="#a086ce" stroke="#15212e" stroke-width="2"/><text x="192" y="185" text-anchor="middle" font-size="12" font-weight="bold" fill="#15212e">P</text></g><rect width="1024" height="32" fill="#162839"/><text x="16" y="23" fill="#fff" font-family="sans-serif" font-size="18">Maritime / B · Breakwater crescent — HUD reservation 0–31</text><rect y="768" width="1024" height="52" fill="#f3f4ed"/><text x="14" y="788" fill="#15212e" font-size="15" font-family="sans-serif">D deployment · C commanders · S infantry · SP specialist · RB robot · O terminal · R survivors · X exit · L relief</text><text x="14" y="809" fill="#15212e" font-size="15" font-family="sans-serif">N nest · E bug · T troops · TK tank · P plasma · V vent · A ambush · H heat · light clear / dark blocked · schematic</text></svg>