<svg xmlns="http://www.w3.org/2000/svg" viewBox="0 0 1024 820" role="img" aria-label="Snow A · Glacier fork"><title>Snow A · Glacier fork</title><desc>Authored schematic. Blocking terrain surrounds clear route corridors; main teal solid, flank violet dashed. Short high shelf gives snipers a straight rescue approach; southern arc offers regrouping and late support. Survivors must retrace a long exposed shelf or accept a longer southern return.</desc><rect width="1024" height="768" fill="#587584"/><g stroke="#d8eef4" stroke-width="144" stroke-linecap="round"><path d="M160,610L160,170"/><path d="M160,170L500,170"/><path d="M500,170L840,170"/><path d="M160,610L500,570"/><path d="M500,570L840,570"/><path d="M840,570L840,170"/></g><g fill="#d8eef4"><circle cx="160" cy="610" r="88"/><circle cx="160" cy="170" r="88"/><circle cx="500" cy="170" r="88"/><circle cx="840" cy="170" r="88"/><circle cx="500" cy="570" r="88"/><circle cx="840" cy="570" r="88"/></g><g stroke="#ffffff" stroke-opacity=".1" stroke-width="1"><path d="M128,32V768"/><path d="M256,32V768"/><path d="M384,32V768"/><path d="M512,32V768"/><path d="M640,32V768"/><path d="M768,32V768"/><path d="M896,32V768"/><path d="M0,128H1024"/><path d="M0,256H1024"/><path d="M0,384H1024"/><path d="M0,512H1024"/><path d="M0,640H1024"/></g><polyline points="160,610 160,170 500,170 840,170" fill="none" stroke="#187d82" stroke-width="7" /><polyline points="160,610 500,570 840,570 840,170" fill="none" stroke="#7652a3" stroke-width="7" stroke-dasharray="16 9"/><g fill="none" stroke="#d37059" stroke-width="3" stroke-dasharray="4 5"><circle cx="160" cy="170" r="77"/><circle cx="500" cy="170" r="77"/><circle cx="840" cy="170" r="77"/><circle cx="500" cy="570" r="77"/><circle cx="840" cy="570" r="77"/></g><circle cx="840" cy="170" r="70" fill="none" stroke="#247352" stroke-width="3" stroke-dasharray="9 5"><title>existing survivor acquisition radius70px</title></circle><circle cx="160" cy="610" r="80" fill="none" stroke="#247352" stroke-width="3" stroke-dasharray="9 5"><title>existing extraction criterion; marker center is reachable radius80px</title></circle><g><title>objective O1</title><rect x="827" y="157" width="26" height="26" fill="#f6de65" stroke="#15212e" stroke-width="2"/><text x="840" y="175" text-anchor="middle" font-size="12" font-weight="bold" fill="#15212e">O1</text></g><g><title>rescue R1</title><rect x="795" y="157" width="26" height="26" fill="#c8efcd" stroke="#15212e" stroke-width="2"/><text x="808" y="175" text-anchor="middle" font-size="12" font-weight="bold" fill="#15212e">R1</text></g><g><title>rescue R2</title><rect x="859" y="157" width="26" height="26" fill="#c8efcd" stroke="#15212e" stroke-width="2"/><text x="872" y="175" text-anchor="middle" font-size="12" font-weight="bold" fill="#15212e">R2</text></g><g><title>rescue R3</title><rect x="827" y="125" width="26" height="26" fill="#c8efcd" stroke="#15212e" stroke-width="2"/><text x="840" y="143" text-anchor="middle" font-size="12" font-weight="bold" fill="#15212e">R3</text></g><g><title>exit X</title><rect x="147" y="597" width="26" height="26" fill="#2d8f69" stroke="#15212e" stroke-width="2"/><text x="160" y="615" text-anchor="middle" font-size="12" font-weight="bold" fill="#15212e">X</text></g><g><title>friendly C commanders</title><circle cx="128" cy="610" r="13" fill="#185d8b" stroke="#15212e" stroke-width="2"/><text x="128" y="615" text-anchor="middle" font-size="12" font-weight="bold" fill="white">C</text></g><g><title>friendly C commanders</title><circle cx="192" cy="610" r="13" fill="#185d8b" stroke="#15212e" stroke-width="2"/><text x="192" y="615" text-anchor="middle" font-size="12" font-weight="bold" fill="white">C</text></g><g><title>friendly C commanders</title><circle cx="160" cy="578" r="13" fill="#185d8b" stroke="#15212e" stroke-width="2"/><text x="160" y="583" text-anchor="middle" font-size="12" font-weight="bold" fill="white">C</text></g><g><title>friendly C commanders</title><circle cx="160" cy="642" r="13" fill="#185d8b" stroke="#15212e" stroke-width="2"/><text x="160" y="647" text-anchor="middle" font-size="12" font-weight="bold" fill="white">C</text></g><g><title>friendly S soldiers</title><circle cx="128" cy="578" r="13" fill="#185d8b" stroke="#15212e" stroke-width="2"/><text x="128" y="583" text-anchor="middle" font-size="12" font-weight="bold" fill="white">S</text></g><g><title>friendly S soldiers</title><circle cx="192" cy="578" r="13" fill="#185d8b" stroke="#15212e" stroke-width="2"/><text x="192" y="583" text-anchor="middle" font-size="12" font-weight="bold" fill="white">S</text></g><g><title>friendly S soldiers</title><circle cx="128" cy="642" r="13" fill="#185d8b" stroke="#15212e" stroke-width="2"/><text x="128" y="647" text-anchor="middle" font-size="12" font-weight="bold" fill="white">S</text></g><g><title>friendly S soldiers</title><circle cx="192" cy="642" r="13" fill="#185d8b" stroke="#15212e" stroke-width="2"/><text x="192" y="647" text-anchor="middle" font-size="12" font-weight="bold" fill="white">S</text></g><g><title>friendly S soldiers</title><circle cx="104" cy="610" r="13" fill="#185d8b" stroke="#15212e" stroke-width="2"/><text x="104" y="615" text-anchor="middle" font-size="12" font-weight="bold" fill="white">S</text></g><g><title>friendly SP snipers</title><circle cx="216" cy="610" r="13" fill="#185d8b" stroke="#15212e" stroke-width="2"/><text x="216" y="615" text-anchor="middle" font-size="12" font-weight="bold" fill="white">SP</text></g><g><title>friendly SP snipers</title><circle cx="160" cy="554" r="13" fill="#185d8b" stroke="#15212e" stroke-width="2"/><text x="160" y="559" text-anchor="middle" font-size="12" font-weight="bold" fill="white">SP</text></g><g><title>friendly SP gunners</title><circle cx="160" cy="666" r="13" fill="#185d8b" stroke="#15212e" stroke-width="2"/><text x="160" y="671" text-anchor="middle" font-size="12" font-weight="bold" fill="white">SP</text></g><g><title>friendly SP gunners</title><circle cx="104" cy="578" r="13" fill="#185d8b" stroke="#15212e" stroke-width="2"/><text x="104" y="583" text-anchor="middle" font-size="12" font-weight="bold" fill="white">SP</text></g><g><title>nest N1</title><circle cx="500" cy="170" r="13" fill="#9f4144" stroke="#15212e" stroke-width="2"/><text x="500" y="175" text-anchor="middle" font-size="12" font-weight="bold" fill="white">N1</text></g><g><title>nest N2</title><circle cx="840" cy="202" r="13" fill="#9f4144" stroke="#15212e" stroke-width="2"/><text x="840" y="207" text-anchor="middle" font-size="12" font-weight="bold" fill="white">N2</text></g><g><title>nest N3</title><circle cx="500" cy="570" r="13" fill="#9f4144" stroke="#15212e" stroke-width="2"/><text x="500" y="575" text-anchor="middle" font-size="12" font-weight="bold" fill="white">N3</text></g><g><title>nest N4</title><circle cx="840" cy="570" r="13" fill="#9f4144" stroke="#15212e" stroke-width="2"/><text x="840" y="575" text-anchor="middle" font-size="12" font-weight="bold" fill="white">N4</text></g><g><title>enemy E1</title><circle cx="808" cy="138" r="13" fill="#cd6464" stroke="#15212e" stroke-width="2"/><text x="808" y="143" text-anchor="middle" font-size="12" font-weight="bold" fill="white">E1</text></g><g><title>enemy E2</title><circle cx="468" cy="570" r="13" fill="#cd6464" stroke="#15212e" stroke-width="2"/><text x="468" y="575" text-anchor="middle" font-size="12" font-weight="bold" fill="white">E2</text></g><g><title>enemy E3</title><circle cx="808" cy="570" r="13" fill="#cd6464" stroke="#15212e" stroke-width="2"/><text x="808" y="575" text-anchor="middle" font-size="12" font-weight="bold" fill="white">E3</text></g><g><title>enemy E4</title><circle cx="160" cy="170" r="13" fill="#cd6464" stroke="#15212e" stroke-width="2"/><text x="160" y="175" text-anchor="middle" font-size="12" font-weight="bold" fill="white">E4</text></g><g><title>enemy E5</title><circle cx="468" cy="170" r="13" fill="#cd6464" stroke="#15212e" stroke-width="2"/><text x="468" y="175" text-anchor="middle" font-size="12" font-weight="bold" fill="white">E5</text></g><g><title>enemy E6</title><circle cx="872" cy="138" r="13" fill="#cd6464" stroke="#15212e" stroke-width="2"/><text x="872" y="143" text-anchor="middle" font-size="12" font-weight="bold" fill="white">E6</text></g><g><title>support T1</title><rect x="115" y="157" width="26" height="26" fill="#e5b33e" stroke="#15212e" stroke-width="2"/><text x="128" y="175" text-anchor="middle" font-size="12" font-weight="bold" fill="#15212e">T1</text></g><g><title>support T2</title><rect x="519" y="557" width="26" height="26" fill="#e5b33e" stroke="#15212e" stroke-width="2"/><text x="532" y="575" text-anchor="middle" font-size="12" font-weight="bold" fill="#15212e">T2</text></g><g><title>support T3</title><rect x="795" y="189" width="26" height="26" fill="#e5b33e" stroke="#15212e" stroke-width="2"/><text x="808" y="207" text-anchor="middle" font-size="12" font-weight="bold" fill="#15212e">T3</text></g><g><title>weapon P</title><rect x="179" y="157" width="26" height="26" fill="#a086ce" stroke="#15212e" stroke-width="2"/><text x="192" y="175" text-anchor="middle" font-size="12" font-weight="bold" fill="#15212e">P</text></g><rect width="1024" height="32" fill="#162839"/><text x="16" y="23" fill="#fff" font-family="sans-serif" font-size="18">Snow / A · Glacier fork — HUD reservation 0–31</text><rect y="768" width="1024" height="52" fill="#f3f4ed"/><text x="14" y="788" fill="#15212e" font-size="15" font-family="sans-serif">D deployment · C commanders · S infantry · SP specialist · RB robot · O terminal · R survivors · X exit · L relief</text><text x="14" y="809" fill="#15212e" font-size="15" font-family="sans-serif">N nest · E bug · T troops · TK tank · P plasma · V vent · A ambush · H heat · light clear / dark blocked · schematic</text></svg>