<svg xmlns="http://www.w3.org/2000/svg" viewBox="0 0 1024 820" role="img" aria-label="Volcanic A · Basalt staircase"><title>Volcanic A · Basalt staircase</title><desc>Authored schematic. Blocking terrain surrounds clear route corridors; main teal solid, flank violet dashed. Staged ascent offers controlled heat encounters; lower loop gets tank support before the second vault. Upper vault is a cul-de-sac requiring retreat; tank turns cannot cover successive bends.</desc><rect width="1024" height="768" fill="#4b242e"/><g stroke="#ad7960" stroke-width="144" stroke-linecap="round"><path d="M160,620L400,620"/><path d="M400,620L400,420"/><path d="M400,420L660,420"/><path d="M660,420L660,170"/><path d="M660,170L860,170"/><path d="M660,420L860,620"/><path d="M860,620L400,620"/></g><g fill="#ad7960"><circle cx="160" cy="620" r="88"/><circle cx="400" cy="620" r="88"/><circle cx="400" cy="420" r="88"/><circle cx="660" cy="420" r="88"/><circle cx="660" cy="170" r="88"/><circle cx="860" cy="170" r="88"/><circle cx="860" cy="620" r="88"/></g><g stroke="#ffffff" stroke-opacity=".1" stroke-width="1"><path d="M128,32V768"/><path d="M256,32V768"/><path d="M384,32V768"/><path d="M512,32V768"/><path d="M640,32V768"/><path d="M768,32V768"/><path d="M896,32V768"/><path d="M0,128H1024"/><path d="M0,256H1024"/><path d="M0,384H1024"/><path d="M0,512H1024"/><path d="M0,640H1024"/></g><polyline points="160,620 400,620 400,420 660,420 660,170 860,170" fill="none" stroke="#187d82" stroke-width="7" /><polyline points="160,620 400,620 860,620 660,420 660,170 860,170" fill="none" stroke="#7652a3" stroke-width="7" stroke-dasharray="16 9"/><g fill="none" stroke="#d37059" stroke-width="3" stroke-dasharray="4 5"><circle cx="400" cy="620" r="77"/><circle cx="400" cy="420" r="77"/><circle cx="660" cy="420" r="77"/><circle cx="660" cy="170" r="77"/><circle cx="860" cy="170" r="77"/><circle cx="860" cy="620" r="77"/></g><g><title>objective O1</title><rect x="847" y="157" width="26" height="26" fill="#f6de65" stroke="#15212e" stroke-width="2"/><text x="860" y="175" text-anchor="middle" font-size="12" font-weight="bold" fill="#15212e">O1</text></g><g><title>objective O2</title><rect x="847" y="607" width="26" height="26" fill="#f6de65" stroke="#15212e" stroke-width="2"/><text x="860" y="625" text-anchor="middle" font-size="12" font-weight="bold" fill="#15212e">O2</text></g><g><title>friendly C commanders</title><circle cx="160" cy="620" r="13" fill="#185d8b" stroke="#15212e" stroke-width="2"/><text x="160" y="625" text-anchor="middle" font-size="12" font-weight="bold" fill="white">C</text></g><g><title>friendly C commanders</title><circle cx="128" cy="620" r="13" fill="#185d8b" stroke="#15212e" stroke-width="2"/><text x="128" y="625" text-anchor="middle" font-size="12" font-weight="bold" fill="white">C</text></g><g><title>friendly C commanders</title><circle cx="192" cy="620" r="13" fill="#185d8b" stroke="#15212e" stroke-width="2"/><text x="192" y="625" text-anchor="middle" font-size="12" font-weight="bold" fill="white">C</text></g><g><title>friendly C commanders</title><circle cx="160" cy="588" r="13" fill="#185d8b" stroke="#15212e" stroke-width="2"/><text x="160" y="593" text-anchor="middle" font-size="12" font-weight="bold" fill="white">C</text></g><g><title>friendly S soldiers</title><circle cx="160" cy="652" r="13" fill="#185d8b" stroke="#15212e" stroke-width="2"/><text x="160" y="657" text-anchor="middle" font-size="12" font-weight="bold" fill="white">S</text></g><g><title>friendly S soldiers</title><circle cx="128" cy="588" r="13" fill="#185d8b" stroke="#15212e" stroke-width="2"/><text x="128" y="593" text-anchor="middle" font-size="12" font-weight="bold" fill="white">S</text></g><g><title>friendly S soldiers</title><circle cx="192" cy="588" r="13" fill="#185d8b" stroke="#15212e" stroke-width="2"/><text x="192" y="593" text-anchor="middle" font-size="12" font-weight="bold" fill="white">S</text></g><g><title>friendly S soldiers</title><circle cx="128" cy="652" r="13" fill="#185d8b" stroke="#15212e" stroke-width="2"/><text x="128" y="657" text-anchor="middle" font-size="12" font-weight="bold" fill="white">S</text></g><g><title>friendly S soldiers</title><circle cx="192" cy="652" r="13" fill="#185d8b" stroke="#15212e" stroke-width="2"/><text x="192" y="657" text-anchor="middle" font-size="12" font-weight="bold" fill="white">S</text></g><g><title>friendly S soldiers</title><circle cx="104" cy="620" r="13" fill="#185d8b" stroke="#15212e" stroke-width="2"/><text x="104" y="625" text-anchor="middle" font-size="12" font-weight="bold" fill="white">S</text></g><g><title>nest N1</title><circle cx="400" cy="420" r="13" fill="#9f4144" stroke="#15212e" stroke-width="2"/><text x="400" y="425" text-anchor="middle" font-size="12" font-weight="bold" fill="white">N1</text></g><g><title>nest N2</title><circle cx="660" cy="420" r="13" fill="#9f4144" stroke="#15212e" stroke-width="2"/><text x="660" y="425" text-anchor="middle" font-size="12" font-weight="bold" fill="white">N2</text></g><g><title>nest N3</title><circle cx="660" cy="170" r="13" fill="#9f4144" stroke="#15212e" stroke-width="2"/><text x="660" y="175" text-anchor="middle" font-size="12" font-weight="bold" fill="white">N3</text></g><g><title>nest N4</title><circle cx="828" cy="170" r="13" fill="#9f4144" stroke="#15212e" stroke-width="2"/><text x="828" y="175" text-anchor="middle" font-size="12" font-weight="bold" fill="white">N4</text></g><g><title>enemy E1</title><circle cx="628" cy="420" r="13" fill="#cd6464" stroke="#15212e" stroke-width="2"/><text x="628" y="425" text-anchor="middle" font-size="12" font-weight="bold" fill="white">E1</text></g><g><title>enemy E2</title><circle cx="628" cy="170" r="13" fill="#cd6464" stroke="#15212e" stroke-width="2"/><text x="628" y="175" text-anchor="middle" font-size="12" font-weight="bold" fill="white">E2</text></g><g><title>enemy E3</title><circle cx="892" cy="170" r="13" fill="#cd6464" stroke="#15212e" stroke-width="2"/><text x="892" y="175" text-anchor="middle" font-size="12" font-weight="bold" fill="white">E3</text></g><g><title>enemy E4</title><circle cx="828" cy="620" r="13" fill="#cd6464" stroke="#15212e" stroke-width="2"/><text x="828" y="625" text-anchor="middle" font-size="12" font-weight="bold" fill="white">E4</text></g><g><title>enemy E5</title><circle cx="400" cy="620" r="13" fill="#cd6464" stroke="#15212e" stroke-width="2"/><text x="400" y="625" text-anchor="middle" font-size="12" font-weight="bold" fill="white">E5</text></g><g><title>enemy E6</title><circle cx="368" cy="420" r="13" fill="#cd6464" stroke="#15212e" stroke-width="2"/><text x="368" y="425" text-anchor="middle" font-size="12" font-weight="bold" fill="white">E6</text></g><g><title>support T1</title><rect x="355" y="607" width="26" height="26" fill="#e5b33e" stroke="#15212e" stroke-width="2"/><text x="368" y="625" text-anchor="middle" font-size="12" font-weight="bold" fill="#15212e">T1</text></g><g><title>support TK</title><rect x="879" y="607" width="26" height="26" fill="#e5b33e" stroke="#15212e" stroke-width="2"/><text x="892" y="625" text-anchor="middle" font-size="12" font-weight="bold" fill="#15212e">TK</text></g><g><title>weapon P</title><rect x="419" y="607" width="26" height="26" fill="#a086ce" stroke="#15212e" stroke-width="2"/><text x="432" y="625" text-anchor="middle" font-size="12" font-weight="bold" fill="#15212e">P</text></g><g><title>thermal H1</title><rect x="679" y="157" width="26" height="26" fill="#ed9d48" stroke="#15212e" stroke-width="2"/><text x="692" y="175" text-anchor="middle" font-size="12" font-weight="bold" fill="#15212e">H1</text></g><g><title>thermal H2</title><rect x="847" y="125" width="26" height="26" fill="#ed9d48" stroke="#15212e" stroke-width="2"/><text x="860" y="143" text-anchor="middle" font-size="12" font-weight="bold" fill="#15212e">H2</text></g><g><title>thermal H3</title><rect x="847" y="575" width="26" height="26" fill="#ed9d48" stroke="#15212e" stroke-width="2"/><text x="860" y="593" text-anchor="middle" font-size="12" font-weight="bold" fill="#15212e">H3</text></g><rect width="1024" height="32" fill="#162839"/><text x="16" y="23" fill="#fff" font-family="sans-serif" font-size="18">Volcanic / A · Basalt staircase — HUD reservation 0–31</text><rect y="768" width="1024" height="52" fill="#f3f4ed"/><text x="14" y="788" fill="#15212e" font-size="15" font-family="sans-serif">D deployment · C commanders · S infantry · SP specialist · RB robot · O terminal · R survivors · X exit · L relief</text><text x="14" y="809" fill="#15212e" font-size="15" font-family="sans-serif">N nest · E bug · T troops · TK tank · P plasma · V vent · A ambush · H heat · light clear / dark blocked · schematic</text></svg>